# xmcd CD database file
#
# Track frame offsets:
#	150
#	22500
#	44225
#
# Disc length: 884 seconds
#
# Revision: 3
# Processed by: cddbd v1.5.1PL0 Copyright (c) Steve Scherf et al.
# Submitted via: CDex 1.51
#
DISCID=1b037203
DTITLE=GORO - 愛がメラメラ 〜Smooth〜
DYEAR=2000
DGENRE=JPop
TTITLE0=愛がメラメラ 〜Smooth〜
TTITLE1=愛がメラメラ 〜Smooth〜 （リミックス）
TTITLE2=愛がメラメラ 〜Smooth〜 （カラオケ）
EXTD=YEAR: 2000
EXTT0=
EXTT1=
EXTT2=
PLAYORDER=
